<?xml version="1.0" encoding="UTF-8"?>
<svg xmlns="http://www.w3.org/2000/svg" xmlns:xlink="http://www.w3.org/1999/xlink" width="1920" height="1080" viewBox="0 0 1920 1080">
<defs>
<g>
<g id="glyph-0-0">
<path d="M 1.820312 0 L 0.253906 0 L 0.253906 -0.414062 L 0.769531 -0.414062 L 0.769531 -3.628906 L 0.253906 -3.628906 L 0.253906 -4.039062 L 1.820312 -4.039062 L 1.820312 -3.628906 L 1.304688 -3.628906 L 1.304688 -0.414062 L 1.820312 -0.414062 Z "/>
</g>
<g id="glyph-0-1">
<path d="M 2.75 0 L 2.242188 0 L 2.242188 -1.726562 C 2.242188 -1.863281 2.234375 -1.996094 2.21875 -2.113281 C 2.207031 -2.234375 2.179688 -2.332031 2.144531 -2.402344 C 2.101562 -2.480469 2.042969 -2.535156 1.96875 -2.574219 C 1.894531 -2.609375 1.792969 -2.628906 1.664062 -2.628906 C 1.539062 -2.628906 1.410156 -2.59375 1.273438 -2.527344 C 1.140625 -2.460938 1.007812 -2.371094 0.878906 -2.261719 L 0.878906 0 L 0.367188 0 L 0.367188 -3.03125 L 0.878906 -3.03125 L 0.878906 -2.695312 C 1.03125 -2.828125 1.179688 -2.933594 1.328125 -3.007812 C 1.476562 -3.078125 1.632812 -3.113281 1.796875 -3.113281 C 2.097656 -3.113281 2.332031 -3.015625 2.5 -2.820312 C 2.667969 -2.625 2.75 -2.339844 2.75 -1.96875 Z "/>
</g>
<g id="glyph-0-2">
<path d="M 1.683594 0.0703125 C 1.203125 0.0703125 0.828125 -0.0664062 0.558594 -0.335938 C 0.292969 -0.609375 0.160156 -0.996094 0.160156 -1.496094 C 0.160156 -1.992188 0.289062 -2.382812 0.546875 -2.675781 C 0.804688 -2.96875 1.144531 -3.113281 1.5625 -3.113281 C 1.75 -3.113281 1.917969 -3.085938 2.0625 -3.03125 C 2.207031 -2.980469 2.332031 -2.894531 2.441406 -2.777344 C 2.550781 -2.664062 2.632812 -2.519531 2.691406 -2.351562 C 2.75 -2.1875 2.777344 -1.980469 2.777344 -1.738281 L 2.777344 -1.460938 L 0.679688 -1.460938 C 0.679688 -1.109375 0.765625 -0.839844 0.945312 -0.652344 C 1.121094 -0.46875 1.367188 -0.375 1.679688 -0.375 C 1.792969 -0.375 1.902344 -0.386719 2.007812 -0.414062 C 2.117188 -0.4375 2.214844 -0.46875 2.300781 -0.511719 C 2.394531 -0.550781 2.46875 -0.59375 2.535156 -0.628906 C 2.597656 -0.667969 2.648438 -0.707031 2.691406 -0.742188 L 2.722656 -0.742188 L 2.722656 -0.183594 C 2.660156 -0.160156 2.585938 -0.132812 2.5 -0.0976562 C 2.410156 -0.0625 2.332031 -0.0351562 2.261719 -0.0117188 C 2.160156 0.0117188 2.070312 0.0351562 1.988281 0.0507812 C 1.910156 0.0625 1.808594 0.0703125 1.683594 0.0703125 M 2.28125 -1.851562 C 2.277344 -1.992188 2.261719 -2.109375 2.234375 -2.207031 C 2.203125 -2.308594 2.164062 -2.390625 2.109375 -2.460938 C 2.046875 -2.535156 1.972656 -2.59375 1.878906 -2.632812 C 1.785156 -2.675781 1.671875 -2.695312 1.53125 -2.695312 C 1.398438 -2.695312 1.28125 -2.671875 1.1875 -2.632812 C 1.09375 -2.59375 1.003906 -2.53125 0.929688 -2.457031 C 0.851562 -2.375 0.792969 -2.289062 0.753906 -2.191406 C 0.714844 -2.09375 0.6875 -1.980469 0.679688 -1.851562 Z "/>
</g>
<g id="glyph-0-3">
<path d="M 1.976562 -2.480469 L 1.949219 -2.480469 C 1.910156 -2.492188 1.871094 -2.5 1.828125 -2.503906 C 1.785156 -2.503906 1.734375 -2.507812 1.675781 -2.507812 C 1.535156 -2.507812 1.398438 -2.476562 1.265625 -2.417969 C 1.128906 -2.359375 1 -2.269531 0.878906 -2.152344 L 0.878906 0 L 0.367188 0 L 0.367188 -3.03125 L 0.878906 -3.03125 L 0.878906 -2.578125 C 1.066406 -2.746094 1.226562 -2.859375 1.367188 -2.929688 C 1.503906 -2.996094 1.636719 -3.03125 1.769531 -3.03125 C 1.820312 -3.03125 1.859375 -3.027344 1.886719 -3.027344 C 1.914062 -3.023438 1.941406 -3.019531 1.976562 -3.015625 Z "/>
</g>
<g id="glyph-0-4">
</g>
<g id="glyph-0-5">
<path d="M 2.75 0 L 0.410156 0 L 0.410156 -4.039062 L 0.945312 -4.039062 L 0.945312 -0.476562 L 2.75 -0.476562 Z "/>
</g>
<g id="glyph-0-6">
<path d="M 2.863281 -1.515625 C 2.863281 -1.003906 2.738281 -0.609375 2.492188 -0.332031 C 2.246094 -0.0546875 1.917969 0.0859375 1.511719 0.0859375 C 1.089844 0.0859375 0.757812 -0.0585938 0.515625 -0.347656 C 0.273438 -0.632812 0.15625 -1.023438 0.15625 -1.515625 C 0.15625 -2.019531 0.277344 -2.414062 0.527344 -2.695312 C 0.777344 -2.972656 1.105469 -3.113281 1.511719 -3.113281 C 1.917969 -3.113281 2.246094 -2.976562 2.492188 -2.695312 C 2.738281 -2.414062 2.863281 -2.023438 2.863281 -1.515625 M 2.335938 -1.515625 C 2.335938 -1.90625 2.265625 -2.199219 2.121094 -2.390625 C 1.980469 -2.578125 1.773438 -2.675781 1.511719 -2.675781 C 1.246094 -2.675781 1.039062 -2.578125 0.898438 -2.390625 C 0.753906 -2.199219 0.679688 -1.90625 0.679688 -1.515625 C 0.679688 -1.132812 0.753906 -0.847656 0.898438 -0.648438 C 1.039062 -0.453125 1.246094 -0.355469 1.511719 -0.355469 C 1.773438 -0.355469 1.976562 -0.453125 2.121094 -0.644531 C 2.265625 -0.835938 2.335938 -1.125 2.335938 -1.515625 Z "/>
</g>
<g id="glyph-0-7">
<path d="M 2.910156 -1.59375 C 2.910156 -1.089844 2.789062 -0.6875 2.546875 -0.390625 C 2.308594 -0.0898438 2.003906 0.0585938 1.632812 0.0585938 C 1.484375 0.0585938 1.351562 0.0429688 1.234375 0.0078125 C 1.117188 -0.0273438 1 -0.078125 0.878906 -0.152344 L 0.878906 1.117188 L 0.367188 1.117188 L 0.367188 -3.03125 L 0.878906 -3.03125 L 0.878906 -2.710938 C 1.003906 -2.828125 1.144531 -2.921875 1.300781 -3 C 1.457031 -3.074219 1.625 -3.113281 1.808594 -3.113281 C 2.152344 -3.113281 2.425781 -2.976562 2.621094 -2.703125 C 2.8125 -2.425781 2.910156 -2.058594 2.910156 -1.59375 M 2.382812 -1.539062 C 2.382812 -1.882812 2.328125 -2.152344 2.21875 -2.34375 C 2.109375 -2.535156 1.929688 -2.628906 1.683594 -2.628906 C 1.539062 -2.628906 1.398438 -2.597656 1.261719 -2.53125 C 1.128906 -2.46875 1 -2.386719 0.878906 -2.285156 L 0.878906 -0.566406 C 1.011719 -0.5 1.128906 -0.457031 1.222656 -0.433594 C 1.316406 -0.410156 1.425781 -0.398438 1.550781 -0.398438 C 1.8125 -0.398438 2.019531 -0.496094 2.164062 -0.6875 C 2.3125 -0.882812 2.382812 -1.164062 2.382812 -1.539062 Z "/>
</g>
</g>
</defs>
<g fill="rgb(100%, 50.196078%, 50.196078%)" fill-opacity="1">
<use xlink:href="#glyph-0-0" x="30" y="25.558594"/>
<use xlink:href="#glyph-0-1" x="31.986328" y="25.558594"/>
<use xlink:href="#glyph-0-1" x="35" y="25.558594"/>
<use xlink:href="#glyph-0-2" x="38" y="25.558594"/>
<use xlink:href="#glyph-0-3" x="41" y="25.558594"/>
<use xlink:href="#glyph-0-4" x="43" y="25.558594"/>
<use xlink:href="#glyph-0-5" x="45" y="25.558594"/>
<use xlink:href="#glyph-0-6" x="48" y="25.558594"/>
<use xlink:href="#glyph-0-6" x="51" y="25.558594"/>
<use xlink:href="#glyph-0-7" x="54" y="25.558594"/>
</g>
</svg>
