<?xml version="1.0" encoding="UTF-8"?>
<svg xmlns="http://www.w3.org/2000/svg" xmlns:xlink="http://www.w3.org/1999/xlink" width="1920" height="1080" viewBox="0 0 1920 1080">
<defs>
<g>
<g id="glyph-0-0">
<path d="M 6.351562 0 L 5.328125 0 L 5.328125 -3.757812 L 1.800781 -3.757812 L 1.800781 0 L 0.777344 0 L 0.777344 -7.675781 L 1.800781 -7.675781 L 1.800781 -4.664062 L 5.328125 -4.664062 L 5.328125 -7.675781 L 6.351562 -7.675781 Z "/>
</g>
<g id="glyph-0-1">
<path d="M 5.226562 -5.757812 L 2.128906 2.125 L 1.09375 2.125 L 2.125 -0.277344 L 0.03125 -5.757812 L 1.078125 -5.757812 L 2.648438 -1.496094 L 4.214844 -5.757812 Z "/>
</g>
<g id="glyph-0-2">
<path d="M 4.53125 -2.898438 C 4.53125 -3.582031 4.425781 -4.105469 4.214844 -4.460938 C 4.007812 -4.816406 3.667969 -4.996094 3.207031 -4.996094 C 2.941406 -4.996094 2.675781 -4.933594 2.40625 -4.808594 C 2.132812 -4.683594 1.890625 -4.527344 1.671875 -4.339844 L 1.671875 -1.042969 C 1.914062 -0.921875 2.128906 -0.835938 2.320312 -0.785156 C 2.507812 -0.734375 2.714844 -0.710938 2.941406 -0.710938 C 3.4375 -0.710938 3.828125 -0.886719 4.109375 -1.238281 C 4.390625 -1.585938 4.53125 -2.140625 4.53125 -2.898438 M 5.53125 -2.972656 C 5.53125 -2.03125 5.300781 -1.273438 4.84375 -0.699219 C 4.386719 -0.128906 3.816406 0.160156 3.128906 0.160156 C 2.816406 0.160156 2.546875 0.121094 2.328125 0.0429688 C 2.105469 -0.0351562 1.886719 -0.136719 1.671875 -0.269531 L 1.609375 0 L 0.699219 0 L 0.699219 -8.019531 L 1.671875 -8.019531 L 1.671875 -5.152344 C 1.914062 -5.375 2.179688 -5.554688 2.464844 -5.699219 C 2.75 -5.84375 3.070312 -5.917969 3.433594 -5.917969 C 4.082031 -5.917969 4.59375 -5.65625 4.96875 -5.136719 C 5.34375 -4.617188 5.53125 -3.894531 5.53125 -2.972656 Z "/>
</g>
<g id="glyph-0-3">
<path d="M 3.753906 -4.714844 L 3.699219 -4.714844 C 3.628906 -4.738281 3.550781 -4.75 3.472656 -4.753906 C 3.390625 -4.761719 3.292969 -4.761719 3.179688 -4.761719 C 2.917969 -4.761719 2.660156 -4.707031 2.402344 -4.59375 C 2.144531 -4.480469 1.898438 -4.3125 1.671875 -4.085938 L 1.671875 0 L 0.699219 0 L 0.699219 -5.757812 L 1.671875 -5.757812 L 1.671875 -4.902344 C 2.023438 -5.214844 2.332031 -5.433594 2.59375 -5.5625 C 2.859375 -5.691406 3.113281 -5.757812 3.359375 -5.757812 C 3.460938 -5.757812 3.535156 -5.753906 3.585938 -5.75 C 3.632812 -5.746094 3.691406 -5.738281 3.753906 -5.726562 Z "/>
</g>
<g id="glyph-0-4">
<path d="M 1.691406 0 L 0.722656 0 L 0.722656 -5.757812 L 1.691406 -5.757812 L 1.691406 0 M 1.757812 -6.722656 L 0.65625 -6.722656 L 0.65625 -7.726562 L 1.757812 -7.726562 Z "/>
</g>
<g id="glyph-0-5">
<path d="M 5.132812 0 L 4.164062 0 L 4.164062 -0.585938 C 4.011719 -0.460938 3.882812 -0.355469 3.773438 -0.273438 C 3.664062 -0.191406 3.535156 -0.113281 3.386719 -0.046875 C 3.25 0.0195312 3.105469 0.0703125 2.957031 0.105469 C 2.8125 0.140625 2.640625 0.160156 2.441406 0.160156 C 2.128906 0.160156 1.839844 0.09375 1.574219 -0.0351562 C 1.308594 -0.167969 1.082031 -0.355469 0.898438 -0.609375 C 0.707031 -0.863281 0.5625 -1.175781 0.457031 -1.550781 C 0.355469 -1.921875 0.304688 -2.351562 0.304688 -2.835938 C 0.304688 -3.339844 0.371094 -3.777344 0.5 -4.148438 C 0.628906 -4.515625 0.8125 -4.839844 1.042969 -5.113281 C 1.25 -5.363281 1.503906 -5.5625 1.800781 -5.703125 C 2.097656 -5.847656 2.410156 -5.917969 2.738281 -5.917969 C 3.027344 -5.917969 3.277344 -5.886719 3.488281 -5.820312 C 3.703125 -5.757812 3.925781 -5.660156 4.164062 -5.527344 L 4.164062 -8.019531 L 5.132812 -8.019531 L 5.132812 0 M 4.164062 -1.402344 L 4.164062 -4.722656 C 3.925781 -4.839844 3.707031 -4.917969 3.519531 -4.964844 C 3.328125 -5.007812 3.121094 -5.03125 2.898438 -5.03125 C 2.398438 -5.03125 2.007812 -4.84375 1.726562 -4.472656 C 1.445312 -4.097656 1.304688 -3.558594 1.304688 -2.855469 C 1.304688 -2.179688 1.414062 -1.660156 1.628906 -1.300781 C 1.84375 -0.941406 2.191406 -0.761719 2.671875 -0.761719 C 2.925781 -0.761719 3.179688 -0.820312 3.4375 -0.933594 C 3.695312 -1.050781 3.9375 -1.207031 4.164062 -1.402344 Z "/>
</g>
<g id="glyph-0-6">
<path d="M 2.484375 -4.289062 L 1.253906 -4.289062 L 1.253906 -5.757812 L 2.484375 -5.757812 L 2.484375 -4.289062 M 2.484375 0 L 1.253906 0 L 1.253906 -1.46875 L 2.484375 -1.46875 Z "/>
</g>
<g id="glyph-0-7">
</g>
<g id="glyph-0-8">
<path d="M 6.371094 0 L 5.046875 0 L 2.246094 -3.570312 L 1.800781 -3.066406 L 1.800781 0 L 0.777344 0 L 0.777344 -7.675781 L 1.800781 -7.675781 L 1.800781 -4.144531 L 4.941406 -7.675781 L 6.183594 -7.675781 L 3.011719 -4.246094 Z "/>
</g>
<g id="glyph-0-9">
<path d="M 5.226562 0 L 4.257812 0 L 4.257812 -3.277344 C 4.257812 -3.542969 4.246094 -3.789062 4.21875 -4.019531 C 4.191406 -4.246094 4.144531 -4.429688 4.070312 -4.566406 C 3.992188 -4.710938 3.882812 -4.820312 3.742188 -4.890625 C 3.601562 -4.960938 3.410156 -4.996094 3.164062 -4.996094 C 2.925781 -4.996094 2.675781 -4.929688 2.421875 -4.800781 C 2.164062 -4.671875 1.914062 -4.503906 1.671875 -4.296875 L 1.671875 0 L 0.699219 0 L 0.699219 -8.019531 L 1.671875 -8.019531 L 1.671875 -5.117188 C 1.957031 -5.375 2.242188 -5.574219 2.527344 -5.710938 C 2.808594 -5.847656 3.105469 -5.917969 3.417969 -5.917969 C 3.984375 -5.917969 4.425781 -5.730469 4.746094 -5.359375 C 5.066406 -4.984375 5.226562 -4.445312 5.226562 -3.738281 Z "/>
</g>
<g id="glyph-0-10">
<path d="M 5.4375 -2.875 C 5.4375 -1.90625 5.203125 -1.160156 4.738281 -0.632812 C 4.269531 -0.105469 3.648438 0.160156 2.871094 0.160156 C 2.070312 0.160156 1.441406 -0.113281 0.980469 -0.65625 C 0.523438 -1.203125 0.292969 -1.941406 0.292969 -2.875 C 0.292969 -3.839844 0.53125 -4.585938 1.003906 -5.117188 C 1.476562 -5.652344 2.097656 -5.917969 2.871094 -5.917969 C 3.042969 -5.917969 3.207031 -5.902344 3.363281 -5.878906 C 3.519531 -5.851562 3.671875 -5.8125 3.820312 -5.757812 L 4.277344 -5.757812 C 4.585938 -5.757812 4.804688 -5.8125 4.933594 -5.925781 C 5.058594 -6.035156 5.125 -6.214844 5.125 -6.457031 C 5.125 -6.582031 5.105469 -6.722656 5.066406 -6.878906 C 5.027344 -7.035156 4.988281 -7.152344 4.949219 -7.230469 L 4.949219 -7.277344 L 5.773438 -7.277344 C 5.816406 -7.117188 5.847656 -6.976562 5.867188 -6.855469 C 5.886719 -6.734375 5.898438 -6.589844 5.898438 -6.417969 C 5.898438 -6.054688 5.796875 -5.761719 5.601562 -5.539062 C 5.402344 -5.320312 5.117188 -5.175781 4.746094 -5.109375 C 4.96875 -4.851562 5.140625 -4.53125 5.261719 -4.15625 C 5.378906 -3.78125 5.4375 -3.355469 5.4375 -2.875 M 4.4375 -2.875 C 4.4375 -3.621094 4.300781 -4.175781 4.03125 -4.539062 C 3.757812 -4.902344 3.371094 -5.082031 2.871094 -5.082031 C 2.367188 -5.082031 1.976562 -4.902344 1.703125 -4.539062 C 1.429688 -4.175781 1.292969 -3.621094 1.292969 -2.875 C 1.292969 -2.15625 1.429688 -1.605469 1.703125 -1.234375 C 1.976562 -0.863281 2.367188 -0.675781 2.871094 -0.675781 C 3.371094 -0.675781 3.753906 -0.859375 4.027344 -1.222656 C 4.300781 -1.589844 4.4375 -2.140625 4.4375 -2.875 M 3.820312 -7.875 C 3.820312 -7.65625 3.761719 -7.480469 3.648438 -7.34375 C 3.535156 -7.210938 3.367188 -7.109375 3.140625 -7.035156 L 3.140625 -6.683594 L 2.570312 -6.683594 L 2.570312 -7.308594 C 2.734375 -7.351562 2.855469 -7.402344 2.9375 -7.472656 C 3.019531 -7.539062 3.0625 -7.636719 3.0625 -7.773438 C 3.0625 -7.855469 3.027344 -7.929688 2.964844 -7.996094 C 2.898438 -8.0625 2.808594 -8.097656 2.695312 -8.097656 C 2.589844 -8.097656 2.503906 -8.089844 2.441406 -8.074219 C 2.378906 -8.058594 2.304688 -8.035156 2.222656 -8.003906 L 2.207031 -8.003906 L 2.207031 -8.546875 C 2.269531 -8.566406 2.367188 -8.585938 2.492188 -8.609375 C 2.617188 -8.628906 2.746094 -8.636719 2.875 -8.636719 C 3.15625 -8.636719 3.382812 -8.566406 3.554688 -8.417969 C 3.730469 -8.269531 3.820312 -8.089844 3.820312 -7.875 Z "/>
</g>
<g id="glyph-0-11">
<path d="M 2.441406 0.113281 C 1.914062 0.113281 1.5 -0.0351562 1.207031 -0.335938 C 0.910156 -0.636719 0.761719 -1.113281 0.761719 -1.761719 L 0.761719 -4.953125 L 0.109375 -4.953125 L 0.109375 -5.757812 L 0.761719 -5.757812 L 0.761719 -7.410156 L 1.730469 -7.410156 L 1.730469 -5.757812 L 3.515625 -5.757812 L 3.515625 -4.953125 L 1.730469 -4.953125 L 1.730469 -2.214844 C 1.730469 -1.925781 1.738281 -1.699219 1.746094 -1.542969 C 1.757812 -1.382812 1.796875 -1.234375 1.867188 -1.097656 C 1.925781 -0.976562 2.019531 -0.886719 2.148438 -0.828125 C 2.28125 -0.765625 2.457031 -0.738281 2.679688 -0.738281 C 2.839844 -0.738281 2.992188 -0.761719 3.140625 -0.808594 C 3.285156 -0.851562 3.394531 -0.890625 3.457031 -0.921875 L 3.515625 -0.921875 L 3.515625 -0.0507812 C 3.332031 0 3.148438 0.0390625 2.960938 0.0703125 C 2.773438 0.0976562 2.601562 0.113281 2.441406 0.113281 Z "/>
</g>
<g id="glyph-0-12">
<path d="M 3.917969 -1.417969 L 3.917969 -3.015625 C 3.6875 -2.996094 3.394531 -2.964844 3.042969 -2.929688 C 2.691406 -2.894531 2.40625 -2.84375 2.191406 -2.777344 C 1.933594 -2.699219 1.71875 -2.578125 1.550781 -2.414062 C 1.382812 -2.25 1.300781 -2.023438 1.300781 -1.730469 C 1.300781 -1.402344 1.390625 -1.152344 1.578125 -0.984375 C 1.761719 -0.816406 2.035156 -0.730469 2.390625 -0.730469 C 2.699219 -0.730469 2.972656 -0.796875 3.222656 -0.929688 C 3.46875 -1.0625 3.699219 -1.226562 3.917969 -1.417969 M 3.917969 -0.613281 C 3.839844 -0.554688 3.734375 -0.472656 3.601562 -0.367188 C 3.46875 -0.265625 3.339844 -0.179688 3.214844 -0.117188 C 3.042969 -0.0273438 2.878906 0.0390625 2.71875 0.0859375 C 2.558594 0.136719 2.335938 0.160156 2.046875 0.160156 C 1.808594 0.160156 1.585938 0.113281 1.371094 0.0273438 C 1.15625 -0.0625 0.972656 -0.1875 0.808594 -0.351562 C 0.65625 -0.507812 0.53125 -0.703125 0.4375 -0.933594 C 0.34375 -1.167969 0.300781 -1.414062 0.300781 -1.671875 C 0.300781 -2.070312 0.382812 -2.40625 0.550781 -2.6875 C 0.71875 -2.96875 0.984375 -3.191406 1.351562 -3.355469 C 1.671875 -3.503906 2.054688 -3.605469 2.496094 -3.664062 C 2.933594 -3.71875 3.410156 -3.761719 3.917969 -3.789062 L 3.917969 -3.972656 C 3.917969 -4.199219 3.882812 -4.382812 3.8125 -4.523438 C 3.746094 -4.660156 3.648438 -4.769531 3.527344 -4.84375 C 3.402344 -4.925781 3.25 -4.976562 3.070312 -5.003906 C 2.894531 -5.027344 2.710938 -5.039062 2.519531 -5.039062 C 2.296875 -5.039062 2.035156 -5.007812 1.730469 -4.941406 C 1.429688 -4.875 1.128906 -4.777344 0.824219 -4.648438 L 0.769531 -4.648438 L 0.769531 -5.632812 C 0.945312 -5.683594 1.203125 -5.742188 1.535156 -5.804688 C 1.871094 -5.867188 2.199219 -5.898438 2.527344 -5.898438 C 2.921875 -5.898438 3.253906 -5.867188 3.527344 -5.804688 C 3.796875 -5.742188 4.039062 -5.628906 4.257812 -5.46875 C 4.46875 -5.3125 4.625 -5.105469 4.726562 -4.855469 C 4.828125 -4.605469 4.882812 -4.296875 4.882812 -3.9375 L 4.882812 0 L 3.917969 0 L 3.917969 -0.613281 M 3.273438 1.96875 L 2.171875 1.96875 L 2.171875 0.964844 L 3.273438 0.964844 Z "/>
</g>
<g id="glyph-0-13">
<path d="M 5.4375 -2.875 C 5.4375 -1.90625 5.203125 -1.160156 4.738281 -0.632812 C 4.269531 -0.105469 3.648438 0.160156 2.871094 0.160156 C 2.070312 0.160156 1.441406 -0.113281 0.980469 -0.65625 C 0.523438 -1.203125 0.292969 -1.941406 0.292969 -2.875 C 0.292969 -3.839844 0.53125 -4.585938 1.003906 -5.117188 C 1.476562 -5.652344 2.097656 -5.917969 2.871094 -5.917969 C 3.648438 -5.917969 4.269531 -5.652344 4.738281 -5.121094 C 5.203125 -4.589844 5.4375 -3.839844 5.4375 -2.875 M 4.4375 -2.875 C 4.4375 -3.621094 4.300781 -4.175781 4.03125 -4.539062 C 3.757812 -4.902344 3.371094 -5.082031 2.871094 -5.082031 C 2.367188 -5.082031 1.976562 -4.902344 1.703125 -4.539062 C 1.429688 -4.175781 1.292969 -3.621094 1.292969 -2.875 C 1.292969 -2.15625 1.429688 -1.605469 1.703125 -1.234375 C 1.976562 -0.863281 2.367188 -0.675781 2.871094 -0.675781 C 3.371094 -0.675781 3.753906 -0.859375 4.027344 -1.222656 C 4.300781 -1.589844 4.4375 -2.140625 4.4375 -2.875 Z "/>
</g>
<g id="glyph-0-14">
<path d="M 5.4375 -2.875 C 5.4375 -1.90625 5.203125 -1.160156 4.738281 -0.632812 C 4.269531 -0.105469 3.648438 0.160156 2.871094 0.160156 C 2.070312 0.160156 1.441406 -0.113281 0.980469 -0.65625 C 0.523438 -1.203125 0.292969 -1.941406 0.292969 -2.875 C 0.292969 -3.839844 0.53125 -4.585938 1.003906 -5.117188 C 1.476562 -5.652344 2.097656 -5.917969 2.871094 -5.917969 C 3.648438 -5.917969 4.269531 -5.652344 4.738281 -5.121094 C 5.203125 -4.589844 5.4375 -3.839844 5.4375 -2.875 M 4.4375 -2.875 C 4.4375 -3.621094 4.300781 -4.175781 4.03125 -4.539062 C 3.757812 -4.902344 3.371094 -5.082031 2.871094 -5.082031 C 2.367188 -5.082031 1.976562 -4.902344 1.703125 -4.539062 C 1.429688 -4.175781 1.292969 -3.621094 1.292969 -2.875 C 1.292969 -2.15625 1.429688 -1.605469 1.703125 -1.234375 C 1.976562 -0.863281 2.367188 -0.675781 2.871094 -0.675781 C 3.371094 -0.675781 3.753906 -0.859375 4.027344 -1.222656 C 4.300781 -1.589844 4.4375 -2.140625 4.4375 -2.875 M 4.640625 -6.683594 L 3.820312 -6.683594 L 2.867188 -8.003906 L 1.917969 -6.683594 L 1.117188 -6.683594 L 2.292969 -8.636719 L 3.464844 -8.636719 Z "/>
</g>
<g id="glyph-0-15">
<path d="M 5.226562 0 L 4.257812 0 L 4.257812 -3.277344 C 4.257812 -3.542969 4.246094 -3.789062 4.21875 -4.019531 C 4.191406 -4.246094 4.144531 -4.429688 4.070312 -4.566406 C 3.992188 -4.710938 3.882812 -4.820312 3.742188 -4.890625 C 3.601562 -4.960938 3.410156 -4.996094 3.164062 -4.996094 C 2.925781 -4.996094 2.675781 -4.929688 2.421875 -4.800781 C 2.164062 -4.671875 1.914062 -4.503906 1.671875 -4.296875 L 1.671875 0 L 0.699219 0 L 0.699219 -5.757812 L 1.671875 -5.757812 L 1.671875 -5.117188 C 1.957031 -5.375 2.242188 -5.574219 2.527344 -5.710938 C 2.808594 -5.847656 3.105469 -5.917969 3.417969 -5.917969 C 3.984375 -5.917969 4.425781 -5.730469 4.746094 -5.359375 C 5.066406 -4.984375 5.226562 -4.445312 5.226562 -3.738281 Z "/>
</g>
<g id="glyph-0-16">
<path d="M 4.164062 -1.5625 L 4.164062 -4.722656 C 3.925781 -4.839844 3.703125 -4.921875 3.496094 -4.972656 C 3.292969 -5.019531 3.089844 -5.046875 2.886719 -5.046875 C 2.394531 -5.046875 2.007812 -4.867188 1.726562 -4.503906 C 1.445312 -4.144531 1.304688 -3.625 1.304688 -2.953125 C 1.304688 -2.3125 1.410156 -1.828125 1.625 -1.496094 C 1.839844 -1.160156 2.1875 -0.996094 2.671875 -0.996094 C 2.921875 -0.996094 3.179688 -1.042969 3.445312 -1.144531 C 3.710938 -1.242188 3.953125 -1.382812 4.164062 -1.5625 M 0.90625 0.921875 C 0.972656 0.949219 1.070312 0.988281 1.195312 1.035156 C 1.324219 1.078125 1.46875 1.125 1.628906 1.164062 C 1.808594 1.210938 1.972656 1.246094 2.125 1.273438 C 2.273438 1.300781 2.441406 1.3125 2.617188 1.3125 C 2.917969 1.3125 3.171875 1.273438 3.378906 1.195312 C 3.585938 1.117188 3.75 1.007812 3.867188 0.867188 C 3.976562 0.726562 4.054688 0.5625 4.097656 0.375 C 4.140625 0.191406 4.164062 -0.0195312 4.164062 -0.257812 L 4.164062 -0.761719 C 3.902344 -0.535156 3.648438 -0.367188 3.398438 -0.261719 C 3.144531 -0.152344 2.832031 -0.0976562 2.453125 -0.0976562 C 1.796875 -0.0976562 1.273438 -0.34375 0.886719 -0.828125 C 0.5 -1.316406 0.304688 -2.019531 0.304688 -2.933594 C 0.304688 -3.410156 0.371094 -3.832031 0.503906 -4.203125 C 0.640625 -4.574219 0.820312 -4.886719 1.046875 -5.144531 C 1.261719 -5.390625 1.519531 -5.582031 1.8125 -5.714844 C 2.109375 -5.851562 2.414062 -5.917969 2.730469 -5.917969 C 3.03125 -5.917969 3.289062 -5.882812 3.507812 -5.8125 C 3.726562 -5.742188 3.945312 -5.640625 4.164062 -5.511719 L 4.222656 -5.757812 L 5.132812 -5.757812 L 5.132812 -0.65625 C 5.132812 0.320312 4.921875 1.039062 4.496094 1.496094 C 4.070312 1.953125 3.417969 2.179688 2.542969 2.179688 C 2.257812 2.179688 1.972656 2.15625 1.675781 2.113281 C 1.382812 2.070312 1.109375 2.007812 0.855469 1.933594 L 0.855469 0.921875 Z "/>
</g>
<g id="glyph-0-17">
<path d="M 7.238281 0 L 7.238281 -3.328125 C 7.238281 -3.59375 7.226562 -3.839844 7.207031 -4.0625 C 7.183594 -4.289062 7.140625 -4.464844 7.078125 -4.59375 C 7.007812 -4.730469 6.910156 -4.832031 6.78125 -4.898438 C 6.65625 -4.960938 6.484375 -4.996094 6.269531 -4.996094 C 6.066406 -4.996094 5.855469 -4.933594 5.625 -4.8125 C 5.398438 -4.691406 5.160156 -4.511719 4.917969 -4.285156 C 4.921875 -4.226562 4.925781 -4.15625 4.929688 -4.074219 C 4.933594 -3.992188 4.9375 -3.898438 4.9375 -3.789062 L 4.9375 0 L 3.96875 0 L 3.96875 -3.328125 C 3.96875 -3.59375 3.957031 -3.839844 3.9375 -4.0625 C 3.917969 -4.289062 3.875 -4.464844 3.808594 -4.59375 C 3.742188 -4.730469 3.640625 -4.832031 3.515625 -4.898438 C 3.386719 -4.960938 3.214844 -4.996094 3 -4.996094 C 2.789062 -4.996094 2.570312 -4.929688 2.339844 -4.796875 C 2.109375 -4.667969 1.886719 -4.5 1.671875 -4.296875 L 1.671875 0 L 0.699219 0 L 0.699219 -5.757812 L 1.671875 -5.757812 L 1.671875 -5.117188 C 1.925781 -5.371094 2.175781 -5.570312 2.425781 -5.707031 C 2.675781 -5.847656 2.949219 -5.917969 3.246094 -5.917969 C 3.585938 -5.917969 3.890625 -5.839844 4.152344 -5.683594 C 4.414062 -5.53125 4.613281 -5.277344 4.753906 -4.921875 C 5.042969 -5.25 5.328125 -5.496094 5.609375 -5.664062 C 5.886719 -5.832031 6.1875 -5.917969 6.515625 -5.917969 C 6.761719 -5.917969 6.988281 -5.878906 7.191406 -5.800781 C 7.394531 -5.722656 7.570312 -5.597656 7.722656 -5.425781 C 7.875 -5.253906 7.996094 -5.035156 8.078125 -4.773438 C 8.164062 -4.511719 8.207031 -4.183594 8.207031 -3.789062 L 8.207031 0 Z "/>
</g>
<g id="glyph-0-18">
<path d="M 6.871094 -2.949219 L 4.269531 -2.949219 L 4.269531 -0.34375 L 3.414062 -0.34375 L 3.414062 -2.949219 L 0.808594 -2.949219 L 0.808594 -3.773438 L 3.414062 -3.773438 L 3.414062 -6.375 L 4.269531 -6.375 L 4.269531 -3.773438 L 6.871094 -3.773438 Z "/>
</g>
<g id="glyph-0-19">
<path d="M -0.0507812 0 L 2.535156 -7.675781 L 3.792969 -7.675781 L 6.382812 0 L 5.304688 0 L 4.609375 -2.144531 L 1.675781 -2.144531 L 0.980469 0 L -0.0507812 0 M 4.324219 -3.015625 L 3.140625 -6.632812 L 1.957031 -3.015625 Z "/>
</g>
<g id="glyph-0-20">
<path d="M 3.917969 -1.417969 L 3.917969 -3.015625 C 3.6875 -2.996094 3.394531 -2.964844 3.042969 -2.929688 C 2.691406 -2.894531 2.40625 -2.84375 2.191406 -2.777344 C 1.933594 -2.699219 1.71875 -2.578125 1.550781 -2.414062 C 1.382812 -2.25 1.300781 -2.023438 1.300781 -1.730469 C 1.300781 -1.402344 1.390625 -1.152344 1.578125 -0.984375 C 1.761719 -0.816406 2.035156 -0.730469 2.390625 -0.730469 C 2.699219 -0.730469 2.972656 -0.796875 3.222656 -0.929688 C 3.46875 -1.0625 3.699219 -1.226562 3.917969 -1.417969 M 3.917969 -0.613281 C 3.839844 -0.554688 3.734375 -0.472656 3.601562 -0.367188 C 3.46875 -0.265625 3.339844 -0.179688 3.214844 -0.117188 C 3.042969 -0.0273438 2.878906 0.0390625 2.71875 0.0859375 C 2.558594 0.136719 2.335938 0.160156 2.046875 0.160156 C 1.808594 0.160156 1.585938 0.113281 1.371094 0.0273438 C 1.15625 -0.0625 0.972656 -0.1875 0.808594 -0.351562 C 0.65625 -0.507812 0.53125 -0.703125 0.4375 -0.933594 C 0.34375 -1.167969 0.300781 -1.414062 0.300781 -1.671875 C 0.300781 -2.070312 0.382812 -2.40625 0.550781 -2.6875 C 0.71875 -2.96875 0.984375 -3.191406 1.351562 -3.355469 C 1.671875 -3.503906 2.054688 -3.605469 2.496094 -3.664062 C 2.933594 -3.71875 3.410156 -3.761719 3.917969 -3.789062 L 3.917969 -3.972656 C 3.917969 -4.199219 3.882812 -4.382812 3.8125 -4.523438 C 3.746094 -4.660156 3.648438 -4.769531 3.527344 -4.84375 C 3.402344 -4.925781 3.25 -4.976562 3.070312 -5.003906 C 2.894531 -5.027344 2.710938 -5.039062 2.519531 -5.039062 C 2.296875 -5.039062 2.035156 -5.007812 1.730469 -4.941406 C 1.429688 -4.875 1.128906 -4.777344 0.824219 -4.648438 L 0.769531 -4.648438 L 0.769531 -5.632812 C 0.945312 -5.683594 1.203125 -5.742188 1.535156 -5.804688 C 1.871094 -5.867188 2.199219 -5.898438 2.527344 -5.898438 C 2.921875 -5.898438 3.253906 -5.867188 3.527344 -5.804688 C 3.796875 -5.742188 4.039062 -5.628906 4.257812 -5.46875 C 4.46875 -5.3125 4.625 -5.105469 4.726562 -4.855469 C 4.828125 -4.605469 4.882812 -4.296875 4.882812 -3.9375 L 4.882812 0 L 3.917969 0 Z "/>
</g>
<g id="glyph-0-21">
<path d="M 9.386719 -7.675781 L 7.457031 0 L 6.308594 0 L 4.746094 -6.371094 L 3.222656 0 L 2.097656 0 L 0.132812 -7.675781 L 1.179688 -7.675781 L 2.726562 -1.292969 L 4.261719 -7.675781 L 5.296875 -7.675781 L 6.851562 -1.230469 L 8.386719 -7.675781 Z "/>
</g>
</g>
</defs>
<g fill="rgb(46.27451%, 86.666667%, 75.294118%)" fill-opacity="1">
<use xlink:href="#glyph-0-0" x="30" y="30.560547"/>
<use xlink:href="#glyph-0-1" x="37" y="30.560547"/>
<use xlink:href="#glyph-0-2" x="42" y="30.560547"/>
<use xlink:href="#glyph-0-3" x="48" y="30.560547"/>
<use xlink:href="#glyph-0-4" x="52" y="30.560547"/>
<use xlink:href="#glyph-0-5" x="54" y="30.560547"/>
<use xlink:href="#glyph-0-6" x="60" y="30.560547"/>
<use xlink:href="#glyph-0-7" x="64" y="30.560547"/>
<use xlink:href="#glyph-0-8" x="67" y="30.560547"/>
<use xlink:href="#glyph-0-9" x="73" y="30.560547"/>
<use xlink:href="#glyph-0-10" x="79" y="30.560547"/>
<use xlink:href="#glyph-0-4" x="85" y="30.560547"/>
<use xlink:href="#glyph-0-7" x="87" y="30.560547"/>
<use xlink:href="#glyph-0-11" x="90" y="30.560547"/>
<use xlink:href="#glyph-0-12" x="94" y="30.560547"/>
<use xlink:href="#glyph-0-13" x="100" y="30.560547"/>
<use xlink:href="#glyph-0-7" x="106" y="30.560547"/>
<use xlink:href="#glyph-0-11" x="109" y="30.560547"/>
<use xlink:href="#glyph-0-9" x="113" y="30.560547"/>
<use xlink:href="#glyph-0-14" x="119" y="30.560547"/>
<use xlink:href="#glyph-0-15" x="125" y="30.560547"/>
<use xlink:href="#glyph-0-16" x="131" y="30.560547"/>
<use xlink:href="#glyph-0-7" x="137" y="30.560547"/>
<use xlink:href="#glyph-0-17" x="140" y="30.560547"/>
<use xlink:href="#glyph-0-4" x="149" y="30.560547"/>
<use xlink:href="#glyph-0-15" x="151" y="30.560547"/>
<use xlink:href="#glyph-0-9" x="157" y="30.560547"/>
<use xlink:href="#glyph-0-7" x="163" y="30.560547"/>
<use xlink:href="#glyph-0-18" x="166" y="30.560547"/>
<use xlink:href="#glyph-0-7" x="174" y="30.560547"/>
<use xlink:href="#glyph-0-19" x="177" y="30.560547"/>
<use xlink:href="#glyph-0-5" x="183" y="30.560547"/>
<use xlink:href="#glyph-0-20" x="189" y="30.560547"/>
<use xlink:href="#glyph-0-17" x="195" y="30.560547"/>
<use xlink:href="#glyph-0-21" x="204" y="30.560547"/>
</g>
</svg>
